<?xml version="1.0" encoding="utf-8"?>
<!-- Generator: Adobe Illustrator 14.0.0, SVG Export Plug-In  -->
<!DOCTYPE svg PUBLIC "-//W3C//DTD SVG 1.1//EN" "http://www.w3.org/Graphics/SVG/1.1/DTD/svg11.dtd" [
	<!ENTITY ns_flows "http://ns.adobe.com/Flows/1.0/">
]>
<svg version="1.1"
	 xmlns="http://www.w3.org/2000/svg" xmlns:xlink="http://www.w3.org/1999/xlink" xmlns:a="http://ns.adobe.com/AdobeSVGViewerExtensions/3.0/"
	 x="0px" y="0px" width="30px" height="30px" viewBox="0 0 30 30" enable-background="new 0 0 30 30" xml:space="preserve">
<defs>
</defs>
<path opacity="0.6" d="M15,29C7.28,29,1,22.72,1,15C1,7.281,7.28,1,15,1s14,6.281,14,14C29,22.72,22.719,29,15,29L15,29z"/>
<path d="M15,2c7.18,0,13,5.82,13,13c0,7.179-5.82,13-13,13C7.82,28,2,22.18,2,15C2,7.82,7.82,2,15,2z"/>
<linearGradient id="SVGID_1_" gradientUnits="userSpaceOnUse" x1="305.8604" y1="367.5547" x2="305.8604" y2="392.4656" gradientTransform="matrix(1 0 0 1 -290.8594 -365.0547)">
	<stop  offset="0" style="stop-color:#C9C9C9"/>
	<stop  offset="0.0036" style="stop-color:#C5C5C5"/>
	<stop  offset="0.1336" style="stop-color:#575757"/>
	<stop  offset="0.2462" style="stop-color:#252525"/>
	<stop  offset="0.4022" style="stop-color:#090909"/>
	<stop  offset="0.5232" style="stop-color:#020202"/>
	<stop  offset="0.8589" style="stop-color:#000000"/>
	<stop  offset="0.9455" style="stop-color:#020202"/>
	<stop  offset="1" style="stop-color:#303030"/>
</linearGradient>
<ellipse fill="url(#SVGID_1_)" cx="15" cy="15" rx="12.5" ry="12.5"/>
<circle fill="#FFFFFF" cx="14.999" cy="15" r="0.693"/>
<path fill="#FFFFFF" d="M12.267,21.033c1.907,0,3.698-0.736,5.045-2.078l0,0l1.592-1.583c0.329-0.329,0.494-0.754,0.494-1.185l0,0
	c0-0.426-0.165-0.854-0.497-1.184l0,0c-0.327-0.329-0.755-0.492-1.187-0.493l0,0c-0.434,0.001-0.863,0.165-1.193,0.494l0,0
	l-1.589,1.582c-0.709,0.702-1.657,1.097-2.657,1.097l0,0V17.68c-0.001,0.004-0.003,0.004-0.005,0.004l0,0h-0.025V17.68
	c-1.001-0.004-1.941-0.393-2.642-1.094l0,0c-0.71-0.707-1.107-1.651-1.109-2.652l0,0c0.001-1,0.399-1.946,1.108-2.654l0,0
	l3.941-3.92c0.329-0.33,0.493-0.756,0.493-1.188l0,0c0-0.43-0.164-0.856-0.491-1.184l0,0c-0.33-0.329-0.759-0.492-1.19-0.492l0,0
	c-0.434,0-0.864,0.164-1.192,0.493l0,0L7.219,8.911c-1.347,1.34-2.09,3.124-2.093,5.024l0,0v0.004c0,1.899,0.746,3.676,2.093,5.014
	l0,0C8.565,20.295,10.357,21.033,12.267,21.033L12.267,21.033"/>
<path fill="#FFFFFF" d="M20.406,13.422c0.734,0.73,1.102,1.69,1.102,2.65l0,0c0,0.959-0.367,1.921-1.104,2.652l0,0l-3.942,3.921
	c-0.33,0.331-0.492,0.758-0.492,1.19l0,0c0,0.43,0.161,0.854,0.492,1.184l0,0c0.328,0.326,0.76,0.488,1.192,0.488l0,0
	c0.433,0,0.86-0.162,1.188-0.488l0,0l3.946-3.924c1.392-1.387,2.088-3.203,2.088-5.022l0,0c0-1.82-0.694-3.637-2.086-5.021l0,0
	c-1.351-1.343-3.138-2.08-5.052-2.08l0,0c-1.907,0-3.695,0.738-5.045,2.079l0,0l-1.591,1.584c-0.33,0.329-0.493,0.754-0.493,1.183
	l0,0c0,0.43,0.163,0.854,0.495,1.184l0,0c0.33,0.329,0.759,0.492,1.188,0.492l0,0c0.434,0,0.862-0.162,1.192-0.49l0,0l1.588-1.582
	c0.737-0.732,1.705-1.098,2.666-1.098l0,0C18.702,12.325,19.67,12.691,20.406,13.422L20.406,13.422z"/>
<rect fill="none" width="30" height="30"/>
</svg>
