<?xml version="1.0" encoding="utf-8"?>
<!-- Generator: Adobe Illustrator 13.0.0, SVG Export Plug-In . SVG Version: 6.00 Build 14948)  -->
<!DOCTYPE svg PUBLIC "-//W3C//DTD SVG 1.1//EN" "http://www.w3.org/Graphics/SVG/1.1/DTD/svg11.dtd">
<svg version="1.1" id="Layer_1" xmlns="http://www.w3.org/2000/svg" xmlns:xlink="http://www.w3.org/1999/xlink" x="0px" y="0px"
	 width="30px" height="30px" viewBox="0 0 30 30" enable-background="new 0 0 30 30" xml:space="preserve">
<g opacity="0.5">
	<rect fill="none" width="30" height="30"/>
</g>
<rect x="7" y="6" width="2" height="2"/>
<rect x="7" y="11" width="2" height="2"/>
<rect x="7" y="16" width="2" height="2"/>
<rect x="7" y="21" width="2" height="2"/>
<rect x="10.059" y="6" width="9.942" height="2"/>
<rect x="10.059" y="11" width="9.942" height="2"/>
<rect x="10.059" y="21" width="4.941" height="2"/>
<path d="M15,17c0-0.357,0.103-0.699,0.277-1h-5.219v2H15V17z"/>
<path d="M11.322,26H5V3h18v10.841c0.23-0.124,0.473-0.216,0.727-0.243c0.101-0.24,0.246-0.461,0.435-0.648l1.362-1.363
	c0.145-0.144,0.308-0.252,0.478-0.342V0H2v29h9.325c-0.18-0.469-0.296-0.963-0.296-1.486C11.029,26.982,11.135,26.473,11.322,26z"/>
<path d="M22.579,23.634L23.945,25c0.06-0.055,0.119-0.104,0.179-0.163c2.506-2.506,2.502-6.587-0.006-9.097
	c-0.058-0.057-0.117-0.104-0.173-0.154l-1.362,1.361c0.058,0.053,0.114,0.101,0.172,0.156c1.757,1.756,1.759,4.613,0.004,6.367
	C22.7,23.529,22.637,23.578,22.579,23.634z"/>
<path d="M27.107,13.155c-0.055-0.056-0.112-0.101-0.17-0.155l-1.362,1.363c0.055,0.052,0.114,0.1,0.17,0.155
	c3.101,3.099,3.104,8.136,0.008,11.231c-0.058,0.058-0.121,0.108-0.183,0.164l1.367,1.366c0.06-0.057,0.123-0.107,0.183-0.166
	C30.965,23.27,30.961,17.008,27.107,13.155z"/>
<path d="M22.029,19L17,17v8.305c-0.254-0.152-0.666-0.244-1.107-0.244c-1.583,0-2.864,1.098-2.864,2.453S14.31,30,15.893,30
	C17.475,30,19,29,19,27.514V21l3.029,1V19L22.029,19z"/>
</svg>
