<?xml version="1.0" encoding="UTF-8"?>
<!DOCTYPE svg PUBLIC "-//W3C//DTD SVG 1.1 Tiny//EN" "http://www.w3.org/Graphics/SVG/1.1/DTD/svg11-tiny.dtd">
<svg baseProfile="tiny" height="22px" version="1.1" viewBox="0 0 22 22" width="22px" x="0px" xmlns="http://www.w3.org/2000/svg" xmlns:xlink="http://www.w3.org/1999/xlink" y="0px">
<path d="M18.5,4.592V3.5c0-0.414-0.336-0.75-0.75-0.75h-16C1.336,2.75,1,3.086,1,3.5v15  c0,0.414,0.336,0.75,0.75,0.75h16c0.414,0,0.75-0.336,0.75-0.75v-1.092c2.168-1.428,3.5-3.852,3.5-6.413  C22,8.439,20.668,6.018,18.5,4.592z" fill-opacity="0.3"/>
<rect fill="none" height="22" width="22"/>
<path d="M1.75,18.5h1v-15h-1V18.5z M3.5,18.5h14.25v-15H3.5V18.5z M8.22,13.184c0.525-0.092,1.029-0.025,1.457,0.146  V5.137c1.663,0,3.224,0.432,4.58,1.188v2.295c-1.041-0.579-2.198-0.971-3.434-1.122v7.31c0.033,0.93-0.793,1.809-1.963,2.014  c-1.256,0.223-2.42-0.414-2.598-1.416C6.091,14.398,6.961,13.406,8.22,13.184z M18.75,5.729V16.27c1.527-1.297,2.5-3.228,2.5-5.274  C21.25,8.947,20.277,7.021,18.75,5.729z" fill="#FFFFFF"/>
</svg>
